<svg xmlns="http://www.w3.org/2000/svg" viewBox="0 0 1022 1022">
  <path d="M511,0 C1018.05623,0 1022,93.5049407 1022,511 C1022,928.495059 1018.05623,1022 511,1022 C3.94377067,1022 0,928.495059 0,511 C0,93.5049407 3.94377067,0 511,0 Z M307.909372,631.356215 L289.965628,631.356215 C278.90932,631.356215 269.484416,635.25305 261.690629,643.046858 C253.896836,650.840645 250,660.26555 250,671.321858 C250,682.378166 253.896836,691.84838 261.690629,699.732793 C269.484416,707.617209 278.90932,711.559358 289.965628,711.559358 L307.909372,711.559358 C318.965679,711.559358 328.390619,707.617209 336.184358,699.732793 C343.978166,691.84838 347.875,682.378166 347.875,671.321858 C347.875,660.26555 343.978166,650.840645 336.184358,643.046858 C328.390619,635.25305 318.965679,631.356215 307.909372,631.356215 Z M732.034358,631.356215 L420.465642,631.356215 C409.409334,631.356215 399.984381,635.25305 392.190642,643.046858 C384.396834,650.840645 380.5,660.26555 380.5,671.321858 C380.5,682.378166 384.396834,691.84838 392.190642,699.732793 C399.984381,707.617209 409.409334,711.559358 420.465642,711.559358 L732.034358,711.559358 C743.090666,711.559358 752.515619,707.617209 760.309358,699.732793 C768.103166,691.84838 772,682.378166 772,671.321858 C772,660.26555 768.103166,650.840645 760.309358,643.046858 C752.515619,635.25305 743.090666,631.356215 732.034358,631.356215 Z M307.909372,470.678073 L289.965628,470.678073 C278.90932,470.678073 269.484416,474.665596 261.690629,482.640642 C253.896836,490.434381 250,499.859334 250,510.915642 C250,521.971881 253.896836,531.396834 261.690629,539.190642 C269.484416,546.984381 278.90932,550.881215 289.965628,550.881215 L307.909372,550.881215 C318.965679,550.881215 328.390619,546.984381 336.184358,539.190642 C343.978166,531.396834 347.875,521.971881 347.875,510.915642 C347.875,499.859334 343.978166,490.389071 336.184358,482.504644 C328.390619,474.620286 318.965679,470.678073 307.909372,470.678073 Z M732.034358,470.678073 L420.465642,470.678073 C409.409334,470.678073 399.984381,474.665596 392.190642,482.640642 C384.396834,490.434381 380.5,499.859334 380.5,510.915642 C380.5,521.971881 384.396834,531.396834 392.190642,539.190642 C399.984381,546.984381 409.409334,550.881215 420.465642,550.881215 L732.034358,550.881215 C743.090666,550.881215 752.515619,546.984381 760.309358,539.190642 C768.103166,531.396834 772,521.971881 772,510.915642 C772,499.859334 768.103166,490.389071 760.309358,482.504644 C752.515619,474.620286 743.090666,470.678073 732.034358,470.678073 Z M307.909372,310 L289.965628,310 C278.90932,310 269.484416,313.987454 261.690629,321.9625 C253.896836,329.756238 250,339.181192 250,350.2375 C250,361.293808 253.896836,370.718692 261.690629,378.5125 C269.484416,386.306238 278.90932,390.203073 289.965628,390.203073 L307.909372,390.203073 C318.965679,390.203073 328.390619,386.306238 336.184358,378.5125 C343.978166,370.718692 347.875,361.293808 347.875,350.2375 C347.875,339.181192 343.978166,329.710929 336.184358,321.826571 C328.390619,313.942144 318.965679,310 307.909372,310 Z M732.034358,310 L420.465642,310 C409.409334,310 399.984381,313.987454 392.190642,321.9625 C384.396834,329.756238 380.5,339.181192 380.5,350.2375 C380.5,361.293808 384.396834,370.718692 392.190642,378.5125 C399.984381,386.306238 409.409334,390.203073 420.465642,390.203073 L732.034358,390.203073 C743.090666,390.203073 752.515619,386.306238 760.309358,378.5125 C768.103166,370.718692 772,361.293808 772,350.2375 C772,339.181192 768.103166,329.710929 760.309358,321.826571 C752.515619,313.942144 743.090666,310 732.034358,310 Z"/>
</svg>
