<svg xmlns="http://www.w3.org/2000/svg" viewBox="0 0 1024 1024">
  <g fill="none" fill-rule="evenodd">
    <path d="M0,513 C0,930.495059 3.94377067,1024 511,1024 C1018.05623,1024 1022,930.495059 1022,513 C1022,95.5049407 1018.05623,2 511,2 C3.94377067,2 0,95.5049407 0,513 Z" fill="#3F51B5" fill-rule="nonzero"/>
    <path d="M11.6906285 333.046858C3.89683579 340.840645 0 350.26555 0 361.321858 0 372.378166 3.89683579 381.84838 11.6906285 389.732793 19.4844156 397.617209 28.9093205 401.559358 39.9656285 401.559358L57.9093715 401.559358C68.9656795 401.559358 78.3906192 397.617209 86.1843576 389.732793 93.9781656 381.84838 97.875 372.378166 97.875 361.321858 97.875 350.26555 93.9781656 340.840645 86.1843576 333.046858 78.3906192 325.25305 68.9656795 321.356215 57.9093715 321.356215L39.9656285 321.356215C28.9093205 321.356215 19.4844156 325.25305 11.6906285 333.046858zM11.6906285 172.640642C3.89683579 180.434381 0 189.859334 0 200.915642 0 211.971881 3.89683579 221.396834 11.6906285 229.190642 19.4844156 236.984381 28.9093205 240.881215 39.9656285 240.881215L57.9093715 240.881215C68.9656795 240.881215 78.3906192 236.984381 86.1843576 229.190642 93.9781656 221.396834 97.875 211.971881 97.875 200.915642 97.875 189.859334 93.9781656 180.389071 86.1843576 172.504644 78.3906192 164.620286 68.9656795 160.678073 57.9093715 160.678073L39.9656285 160.678073C28.9093205 160.678073 19.4844156 164.665596 11.6906285 172.640642zM11.6906285 11.9625C3.89683579 19.7562384 0 29.181192 0 40.2375 0 51.293808 3.89683579 60.718692 11.6906285 68.5125 19.4844156 76.3062384 28.9093205 80.2030728 39.9656285 80.2030728L57.9093715 80.2030728C68.9656795 80.2030728 78.3906192 76.3062384 86.1843576 68.5125 93.9781656 60.718692 97.875 51.293808 97.875 40.2375 97.875 29.181192 93.9781656 19.7109288 86.1843576 11.8265712 78.3906192 3.942144 68.9656795 0 57.9093715 0L39.9656285 0C28.9093205 0 19.4844156 3.9874536 11.6906285 11.9625z" fill="#909EEB" transform="translate(250 312)"/>
    <path d="M142.190642 333.046858C134.396834 340.840645 130.5 350.26555 130.5 361.321858 130.5 372.378166 134.396834 381.84838 142.190642 389.732793 149.984381 397.617209 159.409334 401.559358 170.465642 401.559358L482.034358 401.559358C493.090666 401.559358 502.515619 397.617209 510.309358 389.732793 518.103166 381.84838 522 372.378166 522 361.321858 522 350.26555 518.103166 340.840645 510.309358 333.046858 502.515619 325.25305 493.090666 321.356215 482.034358 321.356215L170.465642 321.356215C159.409334 321.356215 149.984381 325.25305 142.190642 333.046858zM142.190642 172.640642C134.396834 180.434381 130.5 189.859334 130.5 200.915642 130.5 211.971881 134.396834 221.396834 142.190642 229.190642 149.984381 236.984381 159.409334 240.881215 170.465642 240.881215L482.034358 240.881215C493.090666 240.881215 502.515619 236.984381 510.309358 229.190642 518.103166 221.396834 522 211.971881 522 200.915642 522 189.859334 518.103166 180.389071 510.309358 172.504644 502.515619 164.620286 493.090666 160.678073 482.034358 160.678073L170.465642 160.678073C159.409334 160.678073 149.984381 164.665596 142.190642 172.640642zM142.190642 11.9625C134.396834 19.7562384 130.5 29.181192 130.5 40.2375 130.5 51.293808 134.396834 60.718692 142.190642 68.5125 149.984381 76.3062384 159.409334 80.2030728 170.465642 80.2030728L482.034358 80.2030728C493.090666 80.2030728 502.515619 76.3062384 510.309358 68.5125 518.103166 60.718692 522 51.293808 522 40.2375 522 29.181192 518.103166 19.7109288 510.309358 11.8265712 502.515619 3.942144 493.090666 0 482.034358 0L170.465642 0C159.409334 0 149.984381 3.9874536 142.190642 11.9625z" fill="#FFF" transform="translate(250 312)"/>
  </g>
</svg>
